%TF.GenerationSoftware,KiCad,Pcbnew,(6.0.1)*%
%TF.CreationDate,2022-02-16T21:04:10+01:00*%
%TF.ProjectId,ESP32_SCD30,45535033-325f-4534-9344-33302e6b6963,rev?*%
%TF.SameCoordinates,Original*%
%TF.FileFunction,Copper,L2,Bot*%
%TF.FilePolarity,Positive*%
%FSLAX46Y46*%
G04 Gerber Fmt 4.6, Leading zero omitted, Abs format (unit mm)*
G04 Created by KiCad (PCBNEW (6.0.1)) date 2022-02-16 21:04:10*
%MOMM*%
%LPD*%
G01*
G04 APERTURE LIST*
G04 Aperture macros list*
%AMRoundRect*
0 Rectangle with rounded corners*
0 $1 Rounding radius*
0 $2 $3 $4 $5 $6 $7 $8 $9 X,Y pos of 4 corners*
0 Add a 4 corners polygon primitive as box body*
4,1,4,$2,$3,$4,$5,$6,$7,$8,$9,$2,$3,0*
0 Add four circle primitives for the rounded corners*
1,1,$1+$1,$2,$3*
1,1,$1+$1,$4,$5*
1,1,$1+$1,$6,$7*
1,1,$1+$1,$8,$9*
0 Add four rect primitives between the rounded corners*
20,1,$1+$1,$2,$3,$4,$5,0*
20,1,$1+$1,$4,$5,$6,$7,0*
20,1,$1+$1,$6,$7,$8,$9,0*
20,1,$1+$1,$8,$9,$2,$3,0*%
G04 Aperture macros list end*
%TA.AperFunction,ComponentPad*%
%ADD10R,1.650000X1.650000*%
%TD*%
%TA.AperFunction,ComponentPad*%
%ADD11C,1.650000*%
%TD*%
%TA.AperFunction,ComponentPad*%
%ADD12C,1.600000*%
%TD*%
%TA.AperFunction,ComponentPad*%
%ADD13O,1.600000X1.600000*%
%TD*%
%TA.AperFunction,ComponentPad*%
%ADD14R,2.000000X2.000000*%
%TD*%
%TA.AperFunction,ComponentPad*%
%ADD15C,2.000000*%
%TD*%
%TA.AperFunction,ComponentPad*%
%ADD16RoundRect,0.250000X-1.150000X0.980000X-1.150000X-0.980000X1.150000X-0.980000X1.150000X0.980000X0*%
%TD*%
%TA.AperFunction,ComponentPad*%
%ADD17O,2.800000X2.460000*%
%TD*%
%TA.AperFunction,ComponentPad*%
%ADD18R,1.070000X1.800000*%
%TD*%
%TA.AperFunction,ComponentPad*%
%ADD19O,1.070000X1.800000*%
%TD*%
%TA.AperFunction,ComponentPad*%
%ADD20C,1.400000*%
%TD*%
%TA.AperFunction,Conductor*%
%ADD21C,0.600000*%
%TD*%
%TA.AperFunction,Conductor*%
%ADD22C,0.250000*%
%TD*%
G04 APERTURE END LIST*
D10*
%TO.P,U2,1,VDD*%
%TO.N,3v3*%
X88790000Y-105646400D03*
D11*
%TO.P,U2,2,GND*%
%TO.N,GND*%
X88790000Y-103106400D03*
%TO.P,U2,3,TX/SCL*%
%TO.N,/SCL*%
X88790000Y-100566400D03*
%TO.P,U2,4,RX/SDA*%
%TO.N,/SDA*%
X88790000Y-98026400D03*
%TO.P,U2,5,RDY*%
%TO.N,unconnected-(U2-Pad5)*%
X88790000Y-95486400D03*
%TO.P,U2,6,PWM*%
%TO.N,unconnected-(U2-Pad6)*%
X88790000Y-92946400D03*
%TO.P,U2,7,SEL*%
%TO.N,unconnected-(U2-Pad7)*%
X88790000Y-90406400D03*
%TD*%
D12*
%TO.P,R1,1*%
%TO.N,3v3*%
X119210000Y-111136400D03*
D13*
%TO.P,R1,2*%
%TO.N,/SDA*%
X119210000Y-100976400D03*
%TD*%
D12*
%TO.P,R6,1*%
%TO.N,+8V*%
X115316000Y-91948000D03*
D13*
%TO.P,R6,2*%
%TO.N,/D35_adc*%
X115316000Y-81788000D03*
%TD*%
D12*
%TO.P,R7,1*%
%TO.N,/D35_adc*%
X119366000Y-91948000D03*
D13*
%TO.P,R7,2*%
%TO.N,GND*%
X119366000Y-81788000D03*
%TD*%
D12*
%TO.P,R3,1*%
%TO.N,/D12*%
X114808000Y-72644000D03*
D13*
%TO.P,R3,2*%
%TO.N,Net-(D1-Pad4)*%
X114808000Y-62484000D03*
%TD*%
D12*
%TO.P,R2,1*%
%TO.N,3v3*%
X114130000Y-113676400D03*
D13*
%TO.P,R2,2*%
%TO.N,/SCL*%
X114130000Y-103516400D03*
%TD*%
D14*
%TO.P,U1,1,3V3*%
%TO.N,3v3*%
X125984000Y-70845000D03*
D15*
%TO.P,U1,2,GND*%
%TO.N,GND*%
X125984000Y-73385000D03*
%TO.P,U1,3,D15*%
%TO.N,unconnected-(U1-Pad3)*%
X125984000Y-75925000D03*
%TO.P,U1,4,D2*%
%TO.N,unconnected-(U1-Pad4)*%
X125984000Y-78465000D03*
%TO.P,U1,5,D4*%
%TO.N,unconnected-(U1-Pad5)*%
X125984000Y-81005000D03*
%TO.P,U1,6,RX2*%
%TO.N,unconnected-(U1-Pad6)*%
X125984000Y-83545000D03*
%TO.P,U1,7,TX2*%
%TO.N,unconnected-(U1-Pad7)*%
X125984000Y-86085000D03*
%TO.P,U1,8,D5*%
%TO.N,unconnected-(U1-Pad8)*%
X125984000Y-88625000D03*
%TO.P,U1,9,D18*%
%TO.N,unconnected-(U1-Pad9)*%
X125984000Y-91165000D03*
%TO.P,U1,10,D19*%
%TO.N,unconnected-(U1-Pad10)*%
X125984000Y-93705000D03*
%TO.P,U1,11,D21*%
%TO.N,/SDA*%
X125984000Y-96245000D03*
%TO.P,U1,12,RX0*%
%TO.N,unconnected-(U1-Pad12)*%
X125984000Y-98785000D03*
%TO.P,U1,13,TX0*%
%TO.N,unconnected-(U1-Pad13)*%
X125984000Y-101325000D03*
%TO.P,U1,14,D22*%
%TO.N,/SCL*%
X125984000Y-103865000D03*
%TO.P,U1,15,D23*%
%TO.N,unconnected-(U1-Pad15)*%
X125984000Y-106405000D03*
%TO.P,U1,16,EN*%
%TO.N,unconnected-(U1-Pad16)*%
X151384000Y-106405000D03*
%TO.P,U1,17,VP*%
%TO.N,unconnected-(U1-Pad17)*%
X151384000Y-103865000D03*
%TO.P,U1,18,VN*%
%TO.N,unconnected-(U1-Pad18)*%
X151384000Y-101325000D03*
%TO.P,U1,19,D34*%
%TO.N,unconnected-(U1-Pad19)*%
X151384000Y-98785000D03*
%TO.P,U1,20,D35*%
%TO.N,/D35_adc*%
X151384000Y-96245000D03*
%TO.P,U1,21,D32*%
%TO.N,unconnected-(U1-Pad21)*%
X151384000Y-93705000D03*
%TO.P,U1,22,D33*%
%TO.N,unconnected-(U1-Pad22)*%
X151384000Y-91165000D03*
%TO.P,U1,23,D25*%
%TO.N,unconnected-(U1-Pad23)*%
X151384000Y-88625000D03*
%TO.P,U1,24,D26*%
%TO.N,unconnected-(U1-Pad24)*%
X151384000Y-86085000D03*
%TO.P,U1,25,D27*%
%TO.N,unconnected-(U1-Pad25)*%
X151384000Y-83545000D03*
%TO.P,U1,26,D14*%
%TO.N,/D14*%
X151384000Y-81005000D03*
%TO.P,U1,27,D12*%
%TO.N,/D12*%
X151384000Y-78465000D03*
%TO.P,U1,28,D13*%
%TO.N,/D13*%
X151384000Y-75925000D03*
%TO.P,U1,29,GND*%
%TO.N,GND*%
X151384000Y-73385000D03*
%TO.P,U1,30,VIN*%
%TO.N,Net-(S1-Pad3)*%
X151384000Y-70845000D03*
%TD*%
D12*
%TO.P,R5,1*%
%TO.N,/D14*%
X136990000Y-53986400D03*
D13*
%TO.P,R5,2*%
%TO.N,Net-(D1-Pad1)*%
X126830000Y-53986400D03*
%TD*%
D16*
%TO.P,J1,1,Pin_1*%
%TO.N,+8V*%
X92456000Y-61976000D03*
D17*
%TO.P,J1,2,Pin_2*%
%TO.N,GND*%
X92456000Y-65936000D03*
%TD*%
D18*
%TO.P,D1,1,RA*%
%TO.N,Net-(D1-Pad1)*%
X120480000Y-54616400D03*
D19*
%TO.P,D1,2,K*%
%TO.N,GND*%
X119210000Y-54616400D03*
%TO.P,D1,3,GA*%
%TO.N,Net-(D1-Pad3)*%
X117940000Y-54616400D03*
%TO.P,D1,4,BA*%
%TO.N,Net-(D1-Pad4)*%
X116670000Y-54616400D03*
%TD*%
D20*
%TO.P,S1,1,NC*%
%TO.N,unconnected-(S1-Pad1)*%
X98930000Y-53986400D03*
%TO.P,S1,2,COM*%
%TO.N,+8V*%
X101430000Y-53986400D03*
%TO.P,S1,3,NO*%
%TO.N,Net-(S1-Pad3)*%
X103930000Y-53986400D03*
%TD*%
D12*
%TO.P,R4,1*%
%TO.N,/D13*%
X119888000Y-72644000D03*
D13*
%TO.P,R4,2*%
%TO.N,Net-(D1-Pad3)*%
X119888000Y-62484000D03*
%TD*%
D21*
%TO.N,3v3*%
X98145300Y-113676400D02*
X90115300Y-105646400D01*
X127535600Y-112709300D02*
X120782900Y-112709300D01*
X120782900Y-112709300D02*
X119210000Y-111136400D01*
X88790000Y-105646400D02*
X90115300Y-105646400D01*
X125984000Y-70845000D02*
X129247300Y-74108300D01*
X119210000Y-111136400D02*
X116670000Y-113676400D01*
X129247300Y-74108300D02*
X129247300Y-110997600D01*
X114130000Y-113676400D02*
X98145300Y-113676400D01*
X129247300Y-110997600D02*
X127535600Y-112709300D01*
X116670000Y-113676400D02*
X114130000Y-113676400D01*
D22*
%TO.N,/SDA*%
X119210000Y-100976400D02*
X91740000Y-100976400D01*
X91740000Y-100976400D02*
X88790000Y-98026400D01*
X119210000Y-100976400D02*
X120335300Y-100976400D01*
X125066700Y-96245000D02*
X120335300Y-100976400D01*
X125984000Y-96245000D02*
X125066700Y-96245000D01*
%TO.N,/SCL*%
X115603900Y-103865000D02*
X115255300Y-103516400D01*
X91740000Y-103516400D02*
X88790000Y-100566400D01*
X125984000Y-103865000D02*
X115603900Y-103865000D01*
X114130000Y-103516400D02*
X91740000Y-103516400D01*
X114130000Y-103516400D02*
X115255300Y-103516400D01*
D21*
%TO.N,GND*%
X128408100Y-75809100D02*
X128408100Y-110675200D01*
X101959000Y-52782300D02*
X98395000Y-52782300D01*
X91444900Y-64205700D02*
X92456000Y-64205700D01*
X90506400Y-63267200D02*
X91444900Y-64205700D01*
X98395000Y-52782300D02*
X90506400Y-60670900D01*
X113486800Y-65367400D02*
X102680000Y-54560600D01*
X142925200Y-64926200D02*
X151384000Y-73385000D01*
X87461500Y-72660800D02*
X87461500Y-101777900D01*
X127217100Y-111866200D02*
X125366600Y-111866200D01*
X92456000Y-65936000D02*
X92456000Y-64205700D01*
X87461500Y-101777900D02*
X88790000Y-103106400D01*
X118579100Y-65367400D02*
X120798100Y-65367400D01*
X90506400Y-60670900D02*
X90506400Y-63267200D01*
X102680000Y-53503300D02*
X101959000Y-52782300D01*
X119210000Y-54616400D02*
X119210000Y-59605500D01*
X102680000Y-54560600D02*
X102680000Y-53503300D01*
X125984000Y-73385000D02*
X128408100Y-75809100D01*
X118579100Y-79700800D02*
X118579100Y-65367400D01*
X121239300Y-64926200D02*
X142925200Y-64926200D01*
X92456000Y-67666300D02*
X87461500Y-72660800D01*
X121239300Y-61634800D02*
X121239300Y-64926200D01*
X120798100Y-65367400D02*
X121239300Y-64926200D01*
X92456000Y-65936000D02*
X92456000Y-67666300D01*
X119366000Y-81788000D02*
X119366000Y-80487700D01*
X118579100Y-65367400D02*
X113486800Y-65367400D01*
X119366000Y-80487700D02*
X118579100Y-79700800D01*
X128408100Y-110675200D02*
X127217100Y-111866200D01*
X94044300Y-108360700D02*
X88790000Y-103106400D01*
X125366600Y-111866200D02*
X121861100Y-108360700D01*
X119210000Y-59605500D02*
X121239300Y-61634800D01*
X121861100Y-108360700D02*
X94044300Y-108360700D01*
D22*
%TO.N,Net-(D1-Pad1)*%
X120480000Y-53391100D02*
X125109400Y-53391100D01*
X120480000Y-54616400D02*
X120480000Y-53391100D01*
X125109400Y-53391100D02*
X125704700Y-53986400D01*
X126830000Y-53986400D02*
X125704700Y-53986400D01*
%TO.N,Net-(D1-Pad3)*%
X117940000Y-59410700D02*
X117940000Y-54616400D01*
X119888000Y-62484000D02*
X119888000Y-61358700D01*
X119888000Y-61358700D02*
X117940000Y-59410700D01*
%TO.N,Net-(D1-Pad4)*%
X116670000Y-54616400D02*
X116670000Y-55841700D01*
X116670000Y-55841700D02*
X114808000Y-57703700D01*
X114808000Y-57703700D02*
X114808000Y-62484000D01*
%TO.N,/D12*%
X118871500Y-82950400D02*
X114808000Y-78886900D01*
X122130500Y-71569400D02*
X122130500Y-80623000D01*
X141975200Y-69056200D02*
X124643700Y-69056200D01*
X151384000Y-78465000D02*
X141975200Y-69056200D01*
X124643700Y-69056200D02*
X122130500Y-71569400D01*
X119803100Y-82950400D02*
X118871500Y-82950400D01*
X122130500Y-80623000D02*
X119803100Y-82950400D01*
X114808000Y-78886900D02*
X114808000Y-72644000D01*
%TO.N,/D13*%
X123932500Y-68599500D02*
X144058500Y-68599500D01*
X119888000Y-72644000D02*
X123932500Y-68599500D01*
X144058500Y-68599500D02*
X151384000Y-75925000D01*
%TO.N,/D14*%
X152752900Y-69749300D02*
X152752900Y-79636100D01*
X152752900Y-79636100D02*
X151384000Y-81005000D01*
X136990000Y-53986400D02*
X152752900Y-69749300D01*
D21*
%TO.N,+8V*%
X101430000Y-53986400D02*
X96608200Y-58808200D01*
X96608200Y-61976000D02*
X96608200Y-73240200D01*
X96608200Y-58808200D02*
X96608200Y-61976000D01*
X96608200Y-61976000D02*
X92456000Y-61976000D01*
X96608200Y-73240200D02*
X115316000Y-91948000D01*
D22*
%TO.N,Net-(S1-Pad3)*%
X151384000Y-70845000D02*
X133396300Y-52857300D01*
X133396300Y-52857300D02*
X105059100Y-52857300D01*
X105059100Y-52857300D02*
X103930000Y-53986400D01*
%TO.N,/D35_adc*%
X119366000Y-91948000D02*
X119366000Y-83400800D01*
X124658600Y-78790100D02*
X120047900Y-83400800D01*
X118054100Y-83400800D02*
X116441300Y-81788000D01*
X141999000Y-86860000D02*
X141999000Y-84364100D01*
X151384000Y-96245000D02*
X141999000Y-86860000D01*
X119366000Y-83400800D02*
X118054100Y-83400800D01*
X120047900Y-83400800D02*
X119366000Y-83400800D01*
X115316000Y-81788000D02*
X116441300Y-81788000D01*
X124658600Y-69678200D02*
X124658600Y-78790100D01*
X141999000Y-84364100D02*
X127154500Y-69519600D01*
X127154500Y-69519600D02*
X124817200Y-69519600D01*
X124817200Y-69519600D02*
X124658600Y-69678200D01*
%TD*%
M02*
